# xmcd CD database file
#
# Track frame offsets:
#	150
#	11174
#	25704
#	36688
#	47640
#	60530
#	72366
#	83756
#	96892
#	107767
#	119355
#	127941
#
# Disc length: 1867 seconds
#
# Revision: 0
# Processed by: cddbd v1.4PL0 Copyright (c) Steve Scherf et al.
# Submitted via: Feurio! 1.66 - http://www.feurio.com
#
DISCID=9e07490c
DTITLE=Charlie Pride - Songs Of Pride... Charley That Is -1999
DYEAR=1999
DGENRE=CD -Kiste -Keller
TTITLE0=Someday You Will
TTITLE1=She Made Me Go
TTITLE2=The Right To Do Wrong
TTITLE3=The Easy Party's Over
TTITLE4=The Day You Stop Loving You
TTITLE5=I Could Have Saved You The Time
TTITLE6=One Of These Days
TTITLE7=All The Time
TTITLE8=My Heart Is A House
TTITLE9=Let Me Help You Work It Out
TTITLE10=Both Of Us Love You
TTITLE11=The Top Of The World
EXTD=
EXTT0=
EXTT1=
EXTT2=
EXTT3=
EXTT4=
EXTT5=
EXTT6=
EXTT7=
EXTT8=
EXTT9=
EXTT10=
EXTT11=
PLAYORDER=
